<?xml version="1.0" encoding="UTF-8" standalone="no"?>
<!-- Created with Inkscape (http://www.inkscape.org/) -->

<svg
   xmlns:dc="http://purl.org/dc/elements/1.1/"
   xmlns:cc="http://creativecommons.org/ns#"
   xmlns:rdf="http://www.w3.org/1999/02/22-rdf-syntax-ns#"
   xmlns:svg="http://www.w3.org/2000/svg"
   xmlns="http://www.w3.org/2000/svg"
   version="1.1"
   width="512"
   height="512"
   viewBox="0 0 512 512"
   id="svg2">
  <defs
     id="defs4" />
  <metadata
     id="metadata7">
    <rdf:RDF>
      <cc:Work
         rdf:about="">
        <dc:format>image/svg+xml</dc:format>
        <dc:type
           rdf:resource="http://purl.org/dc/dcmitype/StillImage" />
        <dc:title></dc:title>
      </cc:Work>
    </rdf:RDF>
  </metadata>
  <g
     transform="translate(0,-540.36218)"
     id="layer1">
    <path
       style="fill:#ffb471;fill-opacity:1;stroke:#000000;stroke-width:0;stroke-linecap:butt;stroke-linejoin:miter;stroke-miterlimit:4;stroke-opacity:1;stroke-dasharray:none"
       d="M 20.714844 22 L 20 492 L 360 492 L 360 382 L 330 412 L 330 462 L 50 462 L 50.714844 52 L 250 52 L 250 132 L 330 132 L 330 172 L 360 142 L 360 112 L 270 22 L 20.714844 22 z M 270.71484 52 L 330.71484 112 L 270.71484 112 L 270.71484 52 z "
       transform="translate(0,540.36218)"
       id="path2996" />
    <path
       d="m 80,672.36218 140,0 0,30 -140,0 z"
       id="path3770"
       style="fill:#3974b1;fill-opacity:1;stroke:#000000;stroke-width:0;stroke-linecap:butt;stroke-linejoin:miter;stroke-miterlimit:4;stroke-opacity:1;stroke-dasharray:none" />
    <path
       d="m 80,742.36218 200,0 0,30 -200,0 z"
       id="path3772"
       style="fill:#3974b1;fill-opacity:1;stroke:#000000;stroke-width:0;stroke-linecap:butt;stroke-linejoin:miter;stroke-miterlimit:4;stroke-opacity:1;stroke-dasharray:none" />
    <path
       d="m 80,812.36218 140,0 0,30 -140,0 z"
       id="path3774"
       style="fill:#3974b1;fill-opacity:1;stroke:#000000;stroke-width:0;stroke-linecap:butt;stroke-linejoin:miter;stroke-miterlimit:4;stroke-opacity:1;stroke-dasharray:none" />
    <path
       d="m 80,882.36218 110,0 0,30 -110,0 z"
       id="path3776"
       style="fill:#3974b1;fill-opacity:1;stroke:#000000;stroke-width:0;stroke-linecap:butt;stroke-linejoin:miter;stroke-miterlimit:4;stroke-opacity:1;stroke-dasharray:none" />
    <path
       d="m 250,842.36218 160,-160 c 10,-10 20,-10 30,0 l 40,40 c 10,10 10,20 0,30 l -160,160 c 0,-40 -30,-70 -70,-70 z"
       id="path3778"
       style="fill:#d0583b;fill-opacity:1;stroke:#000000;stroke-width:0;stroke-linecap:butt;stroke-linejoin:miter;stroke-miterlimit:4;stroke-opacity:1;stroke-dasharray:none" />
    <path
       d="m 235,322 c 40,0 65,25 65,65 l -90,25 z"
       transform="translate(0,540.36218)"
       id="path3801"
       style="fill:#d0583b;fill-opacity:1;stroke:#000000;stroke-width:0;stroke-linecap:butt;stroke-linejoin:miter;stroke-miterlimit:4;stroke-opacity:1;stroke-dasharray:none" />
  </g>
</svg>
